<?xml version="1.0" encoding="utf-8"?>
<!-- Generator: Adobe Illustrator 24.0.1, SVG Export Plug-In . SVG Version: 6.00 Build 0)  -->
<svg version="1.1" id="Слой_1" xmlns="http://www.w3.org/2000/svg" xmlns:xlink="http://www.w3.org/1999/xlink" x="0px" y="0px"
	 viewBox="0 0 1200 221.7" style="enable-background:new 0 0 1200 221.7;" xml:space="preserve">
<style type="text/css">
	.st0{fill:#272733;}
	.st1{fill:#68952D;}
	.st2{fill:#FFFFFF;}
	.st3{fill:#7B4425;}
	.st4{fill:url(#SVGID_1_);}
	.st5{fill:#383838;}
	.st6{fill:url(#SVGID_2_);}
	.st7{fill:url(#SVGID_3_);}
	.st8{fill:url(#SVGID_4_);}
	.st9{fill:#B5B5B5;}
	.st10{fill:url(#SVGID_5_);}
	.st11{fill:#A2C26A;}
	.st12{fill:url(#SVGID_6_);}
</style>
<g>
	<g>
		<path class="st0" d="M238.6,36.7h-48.5V0h48.5V36.7z M238.6,210.5h-48.5V58.8h48.5V210.5z"/>
		<path class="st0" d="M411.2,210.5h-48.5v-94.3c0-8-2.1-13.6-6.2-16.9c-4.1-3.3-8.6-4.7-13.3-4.7c-4.7,0-9.2,1.5-13.3,4.7
			c-4.1,3.3-6.2,8.9-6.2,16.9v94.3h-48.5V52.6h47.3v13c9.8-9.8,22.2-14.8,37-14.8c14.8,0,26.6,4.4,35.8,13.6
			c10.6,10.6,16,25.7,16,45.2V210.5z"/>
		<path class="st0" d="M578,210.5h-47v-13c-9.8,9.8-22.2,14.8-36.7,14.8c-16.3,0-29.3-4.7-38.4-14.5c-4.4-4.7-8-10.9-10.3-18.6
			c-2.4-7.7-3.8-14.8-4.1-21c-0.3-6.2-0.6-15.1-0.6-26.6c0-11.5,0.3-20.4,0.6-26.6c0.3-6.2,1.8-13.3,4.1-21
			c2.4-7.7,5.9-13.9,10.3-18.6c9.2-9.5,21.9-14.5,38.1-14.5c14.8,0,26.6,4.4,35.5,13.3V1.8H578V210.5z M525.6,159.9
			c2.7-5.9,3.8-15.4,3.8-28.4c0-13-1.2-22.5-3.8-28.4c-2.7-5.9-8-8.9-16.3-8.9c-8.3,0-13.6,3-16.3,8.9c-2.7,5.9-3.8,15.4-3.8,28.4
			c0,13,1.2,22.5,3.8,28.4c2.7,5.9,8,8.9,16.3,8.9C517.7,168.8,523,165.9,525.6,159.9z"/>
		<path class="st0" d="M746.2,131.6c0,15.7-1.2,27.8-3.8,36.7c-2.4,8.6-7.1,16.6-13.9,23.9c-12.7,13.6-29.9,20.1-51.1,20.1
			c-21.3,0-38.4-6.8-51.1-20.1c-6.8-7.1-11.2-15.1-13.9-23.9c-2.4-8.6-3.8-21-3.8-36.7c0-15.4,1.2-27.5,3.8-36.7
			c2.7-8.9,7.1-16.9,13.6-23.9c12.7-13.6,29.9-20.1,51.1-20.1s38.4,6.8,51.1,20.1c6.5,7.1,10.9,15.1,13.6,23.9
			C745,104.1,746.2,116.2,746.2,131.6z M697.7,131.6c0-17.1-2.4-28.1-7.1-32.8c-3-3-7.4-4.4-13-4.4c-5.6,0-10.1,1.5-13,4.4
			c-4.7,4.7-7.1,15.7-7.1,32.8c0,17.1,2.4,28.1,7.1,32.8c3,3,7.4,4.4,13,4.4c5.6,0,10.1-1.5,13-4.4
			C695.3,159.6,697.7,148.7,697.7,131.6z"/>
		<path class="st0" d="M908.8,131.6c0,15.7-1.2,27.8-3.8,36.7c-2.4,8.6-7.1,16.6-13.9,23.9c-12.7,13.6-29.9,20.1-51.1,20.1
			c-21.3,0-38.4-6.8-51.1-20.1c-6.8-7.1-11.2-15.1-13.9-23.9c-2.4-8.6-3.8-21-3.8-36.7c0-15.4,1.2-27.5,3.8-36.7
			C777.5,86,782,78,788.5,71c12.7-13.6,29.9-20.1,51.1-20.1S878,57.6,890.8,71c6.5,7.1,10.9,15.1,13.6,23.9
			C907.6,104.1,908.8,116.2,908.8,131.6z M860.3,131.6c0-17.1-2.4-28.1-7.1-32.8c-3-3-7.4-4.4-13-4.4c-5.6,0-10.1,1.5-13,4.4
			c-4.7,4.7-7.1,15.7-7.1,32.8c0,17.1,2.4,28.1,7.1,32.8c3,3,7.4,4.4,13,4.4c5.6,0,10.1-1.5,13-4.4
			C857.9,159.6,860.3,148.7,860.3,131.6z"/>
		<path class="st0" d="M1061.9,65.6l-36.7,37c-5.6-5.6-11.2-8.3-17.4-8.3c-4.4,0-8.9,1.8-13.3,5c-4.1,3.3-6.5,8.9-6.5,16.9v94.3
			h-48.5V52.6h47.3v13c9.8-9.8,22.5-14.8,37.5-14.8C1039.8,50.8,1052.2,55.9,1061.9,65.6z"/>
		<path class="st0" d="M1200,158.8c0,17.7-6.5,31-19.5,39.9c-13,8.9-29.6,13.6-49.4,13.6c-9.8,0-18-0.3-24.2-0.9
			c-6.2-0.6-13.6-2.7-22.2-6.2c-8.3-3.5-16-8.6-23.1-15.7l31.3-31c8.9,8.9,21.9,13.3,38.7,13.3c5,0,9.8-0.9,14.2-2.4s6.8-4.1,6.8-8
			c0-5.9-3.8-9.2-11.5-10.1l-24.5-2.4c-30.7-3-46.1-18.3-46.1-45.8c0-16.6,6.2-29.3,18.6-38.4c12.4-9.2,27.5-13.9,44.3-13.9
			c28.7,0,49.7,6.5,62.7,19.2l-29.9,29.6c-6.2-6.2-17.4-9.5-33.7-9.5c-5.3,0-9.2,0.9-11.8,3c-2.7,2.1-3.8,4.1-3.8,6.2
			c0,5,3.5,8,10.3,8.9l24.5,2.4c16,1.5,28.1,6.5,36.1,15.4C1195.9,134.5,1200,145.5,1200,158.8z"/>
		<path class="st0" d="M154.6,130.4c-1.8-5.6-4.1-10.1-7.4-13.6c-3.3-3.5-5.9-6.2-8-8c-2.1-1.8-4.7-3.5-8-5.3
			c15.4-10.3,23.1-24.2,23.1-41.4c0-7.3-0.9-14-2.8-20.2c-2.8-9.3-7.7-17.3-14.6-23.8C125.4,7.1,108.8,1.5,87.2,1.5H0v208.7
			l72.1,11.5v-180L20.4,28.1l64.7,6.8v175.3h8.6c18.3-0.3,33.7-5.6,45.5-16.3c12.1-10.9,18.3-26,18.3-45.2
			C157.3,141.9,156.4,136,154.6,130.4z M60.9,116.2c3,0,5.6,2.4,5.6,5.6c0,3.3-2.7,5.6-5.6,5.6c-3.3,0-5.6-2.4-5.6-5.6
			C55.3,118.6,57.6,116.2,60.9,116.2z"/>
	</g>
	<linearGradient id="SVGID_1_" gradientUnits="userSpaceOnUse" x1="85.1442" y1="123.5771" x2="1200" y2="123.5771">
		<stop  offset="0" style="stop-color:#A2C26A"/>
		<stop  offset="1" style="stop-color:#68952D"/>
	</linearGradient>
	<path class="st4" d="M157.6,148.7c0,19.2-6.2,34.3-18.3,45.2c-11.8,10.6-27.2,16-45.5,16.3h-8.6V34.9l66.3,7
		c1.9,6.2,2.8,12.9,2.8,20.2c0,17.1-7.7,31-23.1,41.4c3.3,1.8,5.9,3.5,8,5.3c2.1,1.8,4.7,4.4,8,8c3.3,3.5,5.6,8,7.4,13.6
		C156.4,136,157.3,141.9,157.6,148.7z M190.1,58.8v151.7h48.5V58.8H190.1z M1197,140.7l-119.5-10.9c7.3,11,20.4,17.4,39.1,19.2
		l24.5,2.4c7.7,0.9,11.5,4.1,11.5,10.1c0,3.8-2.4,6.5-6.8,8s-9.2,2.4-14.2,2.4c-16.9,0-29.9-4.4-38.7-13.3l-31.3,31
		c7.1,7.1,14.8,12.1,23.1,15.7c8.6,3.5,16,5.6,22.2,6.2c6.2,0.6,14.5,0.9,24.2,0.9c19.8,0,36.4-4.7,49.4-13.6
		c13-8.9,19.5-22.2,19.5-39.9C1200,152.1,1199,146.1,1197,140.7z M939.5,117.2v93.3H988v-88.9L939.5,117.2z M908.1,114.3l-49.8-4.6
		c1.3,5.6,2,12.8,2,21.8c0,17.1-2.4,28.1-7.1,32.8c-3,3-7.4,4.4-13,4.4c-5.6,0-10.1-1.5-13-4.4c-4.7-4.7-7.1-15.7-7.1-32.8
		c0-10.8,0.9-19.2,2.8-25l-49.7-4.6c-1.5,8.1-2.2,17.9-2.2,29.6c0,15.7,1.5,28.1,3.8,36.7c2.7,8.9,7.1,16.9,13.9,23.9
		c12.7,13.3,29.9,20.1,51.1,20.1c21.3,0,38.4-6.5,51.1-20.1c6.8-7.4,11.5-15.4,13.9-23.9c2.7-8.9,3.8-21,3.8-36.7
		C908.8,125.3,908.6,119.5,908.1,114.3z M746.2,131.6c0,15.7-1.2,27.8-3.8,36.7c-2.4,8.6-7.1,16.6-13.9,23.9
		c-12.7,13.6-29.9,20.1-51.1,20.1c-21.3,0-38.4-6.8-51.1-20.1c-6.8-7.1-11.2-15.1-13.9-23.9c-2.4-8.6-3.8-21-3.8-36.7
		c0-15.4,1.2-27.5,3.8-36.7c0.8-2.5,1.7-5,2.7-7.4l128.1,11.7C745.3,107.8,746.2,118.5,746.2,131.6z M697.7,131.6
		c0-17.1-2.4-28.1-7.1-32.8c-3-3-7.4-4.4-13-4.4c-5.6,0-10.1,1.5-13,4.4c-4.7,4.7-7.1,15.7-7.1,32.8s2.4,28.1,7.1,32.8
		c3,3,7.4,4.4,13,4.4c5.6,0,10.1-1.5,13-4.4C695.3,159.6,697.7,148.7,697.7,131.6z M578,84.1v126.4h-47v-13
		c-9.8,9.8-22.2,14.8-36.7,14.8c-16.3,0-29.3-4.7-38.4-14.5c-4.4-4.7-8-10.9-10.3-18.6c-2.4-7.7-3.8-14.8-4.1-21
		c-0.3-6.2-0.6-15.1-0.6-26.6c0-11.5,0.3-20.4,0.6-26.6c0.3-6.2,1.8-13.3,4.1-21c1.3-4.3,3-8.1,5-11.5L578,84.1z M529.5,131.6
		c0-13-1.2-22.5-3.8-28.4c-2.7-5.9-8-8.9-16.3-8.9c-8.3,0-13.6,3-16.3,8.9c-2.7,5.9-3.8,15.4-3.8,28.4c0,13,1.2,22.5,3.8,28.4
		c2.7,5.9,8,8.9,16.3,8.9c8.3,0,13.6-3,16.3-8.9C528.3,154,529.5,144.6,529.5,131.6z M398.2,67.7l-70.7-6.4c-1.7,1.3-3.4,2.8-5,4.4
		v-4.8l-47.3-4.3v154h48.5v-94.3c0-8,2.1-13.6,6.2-16.9c4.1-3.3,8.6-4.7,13.3-4.7s9.2,1.5,13.3,4.7c4.1,3.3,6.2,8.9,6.2,16.9v94.3
		h48.5V109.7C411.2,92.1,406.9,78.1,398.2,67.7z"/>
</g>
</svg>
